# xmcd CD database file
#
# Track frame offsets:
#	150
#	16977
#	33754
#	50575
#	67359
#	84161
#	101014
#	117831
#	135186
#	151972
#	168791
#	185612
#	202484
#	211960
#	221475
#	230790
#	240251
#	249647
#	259026
#	268399
#	277888
#	287297
#	296691
#	306057
#	315543
#
# Disc length: 4235 seconds
#
# Revision: 0
# Processed by: cddbd v1.5.1PL0 Copyright (c) Steve Scherf et al.
# Submitted via: CDex 1.51
#
DISCID=6b108919
DTITLE=Jeff Harrington - Blues Improvisation Complete (Bb)
DYEAR=1900
DGENRE=Blues
TTITLE0=D, bop, swing
TTITLE1=G, bossa nova, even
TTITLE2=C, shuffle, swing
TTITLE3=F, funk, even
TTITLE4=Bb, bop, swing
TTITLE5=Eb, bossa nova, even
TTITLE6=Ab, shuffle, swing
TTITLE7=C#, funk, even
TTITLE8=F#, bop, swing
TTITLE9=B, Afro-Cuban, swing
TTITLE10=E, shuffle, swing
TTITLE11=A, bugaloo, even
TTITLE12=D, Latin, even
TTITLE13=G, bop, swing
TTITLE14=C, half-time funk, even
TTITLE15=F, New Orleans shuffle, swing
TTITLE16=Bb, Latin, even
TTITLE17=Eb, bop, swing
TTITLE18=Ab, funk, even
TTITLE19=C#, shuffle, swing
TTITLE20=F#, Latin, even
TTITLE21=B, bop, swing
TTITLE22=E, funk shuffle, swing
TTITLE23=A, swing, swing
TTITLE24=Tuning Note B
EXTD=
EXTT0=
EXTT1=
EXTT2=
EXTT3=
EXTT4=
EXTT5=
EXTT6=
EXTT7=
EXTT8=
EXTT9=
EXTT10=
EXTT11=
EXTT12=
EXTT13=
EXTT14=
EXTT15=
EXTT16=
EXTT17=
EXTT18=
EXTT19=
EXTT20=
EXTT21=
EXTT22=
EXTT23=
EXTT24=
PLAYORDER=
